<svg width="57" height="19" viewBox="0 0 57 19" fill="none" xmlns="http://www.w3.org/2000/svg">
<path d="M0.554251 6.54795V6.12996C0.554251 2.14097 3.32551 0.78894 6.71376 0.78894C12.0602 0.78894 13.072 2.97695 13.072 6.09642V15.1994C13.072 16.8094 13.1713 17.5474 13.6262 18.5536H9.32293C9.05996 17.9777 8.87366 17.3706 8.76868 16.7475H8.70332C7.65756 18.5536 6.38958 19 4.23793 19C1.1085 18.9974 0 16.3579 0 14.0434C0 10.7924 1.33596 9.4739 4.44447 8.63792L6.98566 7.9619C8.32162 7.60841 8.77913 7.09495 8.77913 5.93644C8.77913 4.61796 8.1909 3.81294 6.68762 3.81294C5.31768 3.81294 4.5961 4.71343 4.5961 6.06545V6.54795H0.554251ZM8.76868 9.90222C8.18966 10.3111 7.53641 10.6063 6.84448 10.7717C5.01441 11.1562 4.30329 12.0257 4.30329 13.5713C4.30329 14.8897 4.79218 15.9838 5.99742 15.9838C7.20266 15.9838 8.76868 15.2097 8.76868 13.3132V9.90222Z" fill="black"/>
<path d="M17.6963 18.5465V1.25911H21.8009L21.8819 15.0064H27.3539L28.316 18.5387L17.6963 18.5465Z" fill="#008B95"/>
<path d="M36.8917 1.24161H41.3911L36.9911 18.547H31.7623L27.2446 1.24161H31.9505L34.4604 13.6266H34.51L36.8917 1.24161Z" fill="black"/>
<path d="M43.9203 6.54795V6.12996C43.9203 2.14097 46.702 0.78894 50.0902 0.78894C55.4367 0.78894 56.4458 2.97695 56.4458 6.09642V15.1994C56.4458 16.8094 56.5452 17.5474 57.0001 18.5536H52.6994C52.4364 17.9777 52.2501 17.3706 52.1452 16.7475H52.0798C51.034 18.5536 49.7661 19 47.6144 19C44.4771 19 43.3765 16.3605 43.3765 14.046C43.3765 10.795 44.7124 9.47648 47.8209 8.6405L50.3621 7.96448C51.6981 7.61099 52.1556 7.09753 52.1556 5.93902C52.1556 4.62054 51.5674 3.81552 50.0641 3.81552C48.6941 3.81552 47.9726 4.71601 47.9726 6.06803V6.55053L43.9203 6.54795ZM52.1347 9.90222C51.5557 10.3111 50.9024 10.6063 50.2105 10.7717C48.3804 11.1562 47.6693 12.0257 47.6693 13.5713C47.6693 14.8897 48.1582 15.9838 49.3634 15.9838C50.5687 15.9838 52.1347 15.2097 52.1347 13.3132V9.90222Z" fill="black"/>
</svg>
